Coordinates
version=1
nRows=5
nColumns=42
inDegrees=yes

Units are S.I. units (second, meters, Newtons, ...)
If the header above contains a line with 'inDegrees', this indicates whether rotational values are in degrees (yes) or radians (no).

endheader
time	pelvis_tilt	pelvis_list	pelvis_rotation	pelvis_tx	pelvis_ty	pelvis_tz	hip_flexion_r	hip_adduction_r	hip_rotation_r	knee_angle_r	knee_adduction_r	knee_angle_r_beta	ankle_angle_r	subtalar_angle_r	mtp_angle_r	hip_flexion_l	hip_adduction_l	hip_rotation_l	knee_angle_l	knee_adduction_l	knee_angle_l_beta	ankle_angle_l	subtalar_angle_l	mtp_angle_l	lumbar_extension	lumbar_bending	lumbar_rotation	arm_flex_r	arm_add_r	arm_rot_r	elbow_flex_r	pro_sup_r	wrist_flex_r	wrist_dev_r	arm_flex_l	arm_add_l	arm_rot_l	elbow_flex_l	pro_sup_l	wrist_flex_l	wrist_dev_l
      1.28000000	      9.20244823	      1.05478247	      1.62278286	      0.89719696	      0.84166181	     -0.26759821	    -11.73723516	     -0.19080299	    -16.67499491	      9.98796948	      1.84225262	      0.17432295	     18.90804948	     14.20731417	     -7.50888636	     14.23042437	     -4.03121176	     -9.99341577	     57.03258770	     -1.35924590	      0.99540644	     11.60599564	    -13.20142013	     -7.50888636	    -22.92043036	     -0.69105812	      3.82922085	      4.77570329	    -15.66755723	     -6.08886443	     36.11836703	     90.00000001	      0.00000000	      0.00000000	     -1.75198517	     -9.62619318	    -23.07292004	     37.59051165	     90.00000001	      0.00000000	      0.00000000
      1.29000000	      8.61986646	      0.79449393	      1.30768205	      0.91104301	      0.84048210	     -0.26636216	    -12.34689413	      0.14057997	    -17.36167241	      9.59640744	      1.92093840	      0.16748891	     19.01807229	     14.12163352	     -7.50876430	     16.32410193	     -4.35860535	    -10.62155679	     54.47367660	     -0.89990042	      0.95074501	     11.73748990	    -12.90701496	     -7.50876430	    -22.28157985	     -0.72074443	      4.73720295	      5.01779643	    -15.89059492	     -6.00673238	     36.48968458	     90.00000001	      0.00000000	      0.00000000	     -2.69306841	     -9.85912364	    -23.38721734	     37.27269211	     90.00000001	      0.00000000	      0.00000000
      1.30000000	      9.01534556	      1.60917332	      0.56693431	      0.92612053	      0.84066098	     -0.26548096	    -14.84117091	     -0.79323678	    -16.98792088	      7.82227514	      2.37187416	      0.13652446	     19.33986156	     15.39241212	     -7.50839508	     16.31377904	     -3.22173112	    -11.78001166	     50.31254666	     -0.56214879	      0.87811959	     11.87308578	    -13.58270493	     -7.50839508	    -22.60995566	     -1.95484590	      5.75641568	      4.99998407	    -16.31861325	     -5.14933259	     37.08966056	     90.00000001	      0.00000000	      0.00000000	     -2.88899149	     -9.81530782	    -26.00836415	     36.06193248	     90.00000001	      0.00000000	      0.00000000
      1.31000000	      8.46196435	      1.30971866	      0.31525121	      0.94026748	      0.83868148	     -0.26433067	    -15.50794766	     -0.28549783	    -17.62481185	      7.37265812	      2.24622859	      0.12867716	     19.50870848	     15.42509259	     -7.50825091	     18.00195198	     -3.54138502	    -12.63700299	     47.07660219	     -0.35835771	      0.82164171	     12.12963442	    -13.41963451	     -7.50825091	    -21.95979441	     -1.92736818	      6.67562830	      5.15564263	    -16.63737509	     -4.94906453	     37.40646201	     90.00000001	      0.00000000	      0.00000000	     -3.70769126	    -10.03343482	    -26.65594793	     35.69562211	     90.00000001	      0.00000000	      0.00000000
      1.32000000	      8.83277470	      1.76274008	     -0.35162357	      0.95526748	      0.83790633	     -0.26374433	    -17.67028367	     -1.01421256	    -17.63891871	      6.23253544	      2.84981159	      0.10877826	     19.83811878	     16.43814779	     -7.50794729	     17.79209313	     -2.89508527	    -13.88127459	     42.53626854	     -0.01313780	      0.74239794	     12.36696509	    -13.14960718	     -7.50794729	    -22.26547581	     -2.69339376	      7.55383570	      5.34272117	    -17.14814419	     -4.04259473	     37.91247206	     90.00000001	      0.00000000	      0.00000000	     -4.05785133	     -9.99411380	    -29.35434368	     34.65379566	     90.00000001	      0.00000000	      0.00000000
